<svg xmlns="http://www.w3.org/2000/svg" viewBox="0 0 890 890"><defs><style>.cls-1{fill:#fff;}.cls-2{fill:#109fdb;}.cls-3{fill:#88c233;}.cls-4{fill:#bbbcbf;}.cls-5{fill:#f49300;}.cls-6{fill:#1c3060;}</style></defs><title>singularity-logo</title><g id="Layer_2" data-name="Layer 2"><g id="Layer_1-2" data-name="Layer 1"><circle class="cls-1" cx="445" cy="445" r="445"/><path class="cls-2" d="M444.38,61.92C239.1,62.53,72.79,232.55,72,442.51h76.87c.78-166,132.72-300.34,295.51-300.75Z"/><path class="cls-3" d="M461.54,62.26v80c155.51,8.67,279.09,139.67,279.85,300.29H819C818.23,237.67,659.9,70.84,461.54,62.26Z"/><path class="cls-4" d="M444.38,746.24c-157.88-.4-286.74-126.79-295.09-285.82H72.34c8.39,203,171.65,365.06,372,365.66Z"/><path class="cls-5" d="M741,460.42c-8.06,153.74-128.75,277-279.42,285.36v80c193.52-8.37,348.94-167.36,357.12-365.32Z"/><path class="cls-6" d="M524.23,399.22s-17.91-6.71-44.77-17.91c-35.83-14.92-29.11-30.59-29.11-30.59s7.46-26.12,51.49-17.17C547.78,342.9,581.69,391,581.69,391l44-126.12C557.81,237.28,455.91,236,412.29,240.27,313.78,250,272.74,308,272.74,366.76c0,45,16.42,78,54.83,99,45.71,28.54,87.31,30.9,98.9,52.15,15.35,28.14-20.9,33.58-20.9,33.58-59.7,4.48-106-61.94-106-61.94L256.32,621.61c167.91,56.72,283.58,17.91,283.58,17.91,53-17.91,94-54.47,94-116.42C633.93,462.11,598.86,426.09,524.23,399.22Z"/></g></g></svg>